<svg width="343" height="176" viewBox="0 0 343 176" fill="none" xmlns="http://www.w3.org/2000/svg">
<rect x="0.204651" y="49.4493" width="327" height="128" rx="10" transform="rotate(-8.69391 0.204651 49.4493)" fill="#00308F"/>
<path d="M81.456 128.272C80.7733 128.272 80.2187 128.144 79.792 127.888C79.3653 127.717 79.1947 127.291 79.28 126.608C79.28 126.352 79.408 125.968 79.664 125.456C79.92 124.944 80.0907 124.56 80.176 124.304C80.6027 123.109 80.9867 121.915 81.328 120.72C81.6693 119.44 82.0107 118.245 82.352 117.136C83.5467 112.443 84.656 107.792 85.68 103.184C86.704 98.4907 87.5147 93.7973 88.112 89.104C88.2827 87.9093 88.4107 86.544 88.496 85.008C88.5813 83.3867 88.624 81.68 88.624 79.888C88.624 75.792 88.1973 71.44 87.344 66.832C86.4907 62.224 84.8267 58.4693 82.352 55.568H72.624C71.344 55.568 69.552 55.6533 67.248 55.824C65.0293 55.9947 62.7253 56.3787 60.336 56.976C58.032 57.5733 56.112 58.5547 54.576 59.92C53.04 61.2853 52.3573 63.12 52.528 65.424C52.6133 66.1067 52.8693 67.0453 53.296 68.24C53.7227 69.3493 54.0213 70.032 54.192 70.288L52.784 71.312C52.272 70.3733 51.632 69.3067 50.864 68.112C50.096 66.832 49.4133 65.5947 48.816 64.4C48.2187 63.2053 47.8773 62.3093 47.792 61.712C47.7067 60.8587 47.7493 59.7493 47.92 58.384C48.0907 57.0187 48.7733 55.824 49.968 54.8C51.248 53.6907 52.9973 52.9653 55.216 52.624C57.52 52.2827 59.8667 52.112 62.256 52.112C64.56 52.112 66.7787 52.1973 68.912 52.368C71.0453 52.5387 72.7947 52.624 74.16 52.624C74.16 52.624 75.1413 52.624 77.104 52.624C79.0667 52.624 81.5413 52.624 84.528 52.624C87.6 52.5387 90.8427 52.496 94.256 52.496C97.6693 52.496 100.784 52.496 103.6 52.496L100.912 55.824C98.352 55.824 95.792 55.824 93.232 55.824C90.7573 55.7387 88.24 55.696 85.68 55.696C88.4107 57.488 90.416 59.8347 91.696 62.736C93.0613 65.6373 93.9573 68.6667 94.384 71.824C94.8107 74.9813 95.024 77.9253 95.024 80.656C95.024 81.7653 94.9813 82.832 94.896 83.856C94.896 84.88 94.896 85.776 94.896 86.544C94.7253 90.5547 94.1707 95.376 93.232 101.008C92.2933 106.64 91.0987 111.973 89.648 117.008C92.464 113.083 95.6213 108.432 99.12 103.056C102.704 97.5947 106.715 91.8773 111.152 85.904C115.675 79.8453 120.581 74 125.872 68.368C128.005 66.1493 130.267 63.888 132.656 61.584C135.045 59.28 137.605 57.36 140.336 55.824C143.067 54.288 146.011 53.52 149.168 53.52C151.899 53.52 153.989 53.9467 155.44 54.8L154.672 56.208C154.331 56.1227 153.989 56.08 153.648 56.08C153.392 55.9947 153.051 55.952 152.624 55.952C150.235 55.952 147.675 56.6773 144.944 58.128C142.299 59.5787 140.251 61.0293 138.8 62.48C136.155 65.1253 134.107 68.2827 132.656 71.952C131.205 75.536 130.139 79.376 129.456 83.472C128.859 87.4827 128.389 91.5787 128.048 95.76C127.707 99.856 127.365 103.739 127.024 107.408C126.768 111.077 126.256 114.277 125.488 117.008C128.987 112.059 133.296 106.171 138.416 99.344C143.621 92.5173 149.552 85.4347 156.208 78.096C162.864 70.672 170.16 63.632 178.096 56.976C179.717 55.6107 181.808 54.0747 184.368 52.368C187.013 50.6613 189.787 49.2107 192.688 48.016C195.675 46.736 198.491 46.096 201.136 46.096C203.611 46.096 205.317 46.5227 206.256 47.376C207.28 48.2293 207.792 49.3387 207.792 50.704C207.792 52.3253 207.28 54.1173 206.256 56.08C205.317 58.0427 204.592 59.664 204.08 60.944C203.995 61.2 203.611 61.3707 202.928 61.456C202.245 61.5413 201.947 61.4133 202.032 61.072C202.203 60.3893 202.373 59.5787 202.544 58.64C202.8 57.616 202.928 56.592 202.928 55.568C202.928 54.2027 202.672 52.9653 202.16 51.856C201.648 50.7467 200.667 50.1067 199.216 49.936C198.96 49.8507 198.704 49.808 198.448 49.808C198.192 49.808 197.936 49.808 197.68 49.808C195.291 49.808 192.688 50.6613 189.872 52.368C187.056 53.9893 183.813 56.2933 180.144 59.28C172.976 64.9973 166.107 71.312 159.536 78.224C152.965 85.0507 146.736 92.2187 140.848 99.728C137.776 103.568 134.789 107.451 131.888 111.376C128.987 115.301 126.299 119.397 123.824 123.664C123.653 124.005 123.483 124.389 123.312 124.816C123.227 125.328 123.099 125.712 122.928 125.968C122.757 126.139 122.245 126.395 121.392 126.736C120.539 127.163 119.685 127.504 118.832 127.76C118.064 128.101 117.552 128.272 117.296 128.272C116.613 128.272 116.059 128.144 115.632 127.888C115.205 127.717 115.035 127.291 115.12 126.608C115.12 126.352 115.248 125.968 115.504 125.456C115.76 124.944 115.931 124.56 116.016 124.304C116.443 123.109 116.827 121.915 117.168 120.72C117.509 119.44 117.851 118.245 118.192 117.136C119.216 113.381 119.941 109.413 120.368 105.232C120.88 101.051 121.349 96.8693 121.776 92.688C122.288 88.4213 123.056 84.3253 124.08 80.4C125.104 76.4747 126.683 72.9333 128.816 69.776C127.109 70.8 124.677 73.3173 121.52 77.328C118.363 81.2533 114.523 86.032 110 91.664C108.464 93.5413 106.757 95.888 104.88 98.704C103.003 101.435 101.083 104.336 99.12 107.408C97.2427 110.395 95.408 113.339 93.616 116.24C91.9093 119.056 90.4587 121.531 89.264 123.664C89.0933 124.005 88.9227 124.389 88.752 124.816C88.6667 125.328 88.5387 125.712 88.368 125.968C88.1973 126.139 87.5573 126.395 86.448 126.736C85.424 127.163 84.4 127.504 83.376 127.76C82.352 128.101 81.712 128.272 81.456 128.272ZM171.773 123.024C168.274 123.024 165.842 122.341 164.477 120.976C163.112 119.611 162.429 117.947 162.429 115.984C162.429 113.509 163.069 110.864 164.349 108.048C165.714 105.232 166.994 102.843 168.189 100.88C169.554 98.832 171.389 96.6987 173.693 94.48C175.997 92.2613 178.514 90.384 181.245 88.848C183.976 87.312 186.621 86.544 189.181 86.544C191.4 86.544 192.936 87.0987 193.789 88.208C194.642 89.232 195.069 90.4693 195.069 91.92C195.069 94.5653 194.258 96.7413 192.637 98.448C191.101 100.155 189.181 101.563 186.877 102.672C184.573 103.696 182.354 104.549 180.221 105.232C178.941 105.573 177.448 105.915 175.741 106.256C174.034 106.597 172.413 106.768 170.877 106.768C170.28 108.304 169.81 109.797 169.469 111.248C169.128 112.699 168.957 114.021 168.957 115.216C168.957 116.667 169.298 117.861 169.981 118.8C170.749 119.739 171.986 120.208 173.693 120.208C174.376 120.208 175.186 120.123 176.125 119.952C177.064 119.781 178.088 119.525 179.197 119.184C181.757 118.331 184.274 116.965 186.749 115.088C189.224 113.211 191.485 111.205 193.533 109.072C195.666 106.853 197.288 105.019 198.397 103.568C198.653 103.824 198.781 104.123 198.781 104.464C198.781 104.891 198.482 105.573 197.885 106.512C196.178 108.901 193.96 111.376 191.229 113.936C188.498 116.496 185.469 118.672 182.141 120.464C178.813 122.171 175.357 123.024 171.773 123.024ZM171.901 104.208C173.01 104.293 174.248 104.293 175.613 104.208C177.064 104.037 178.472 103.739 179.837 103.312C183.336 102.288 185.853 100.667 187.389 98.448C189.01 96.144 189.821 94.096 189.821 92.304C189.821 91.28 189.608 90.4267 189.181 89.744C188.754 89.0613 188.072 88.72 187.133 88.72C184.658 88.72 182.44 89.6587 180.477 91.536C178.514 93.328 176.808 95.4187 175.357 97.808C173.906 100.197 172.754 102.331 171.901 104.208ZM213.76 122.384C212.907 122.384 212.181 122.213 211.584 121.872C210.987 121.531 210.688 120.891 210.688 119.952C210.688 118.757 210.987 117.392 211.584 115.856C212.181 114.32 212.864 112.827 213.632 111.376C214.4 109.84 215.083 108.603 215.68 107.664C212.693 110.821 209.579 113.808 206.336 116.624C204.715 117.989 202.923 119.269 200.96 120.464C198.997 121.659 196.907 122.256 194.688 122.256C193.835 122.256 193.237 122 192.896 121.488C192.555 120.891 192.384 120.208 192.384 119.44C192.384 119.013 192.427 118.715 192.512 118.544C192.939 115.216 194.005 111.76 195.712 108.176C197.419 104.592 199.509 101.221 201.984 98.064C204.459 94.9067 206.976 92.3467 209.536 90.384C212.437 88.1653 215.637 87.056 219.136 87.056H233.856C234.283 87.056 234.496 87.2267 234.496 87.568C234.496 88.2507 234.112 88.592 233.344 88.592C232.491 88.592 231.637 89.1467 230.784 90.256C229.931 91.28 229.291 92.1333 228.864 92.816C228.267 93.7547 227.328 95.3333 226.048 97.552C224.768 99.7707 223.445 102.203 222.08 104.848C220.8 107.408 219.691 109.797 218.752 112.016C217.813 114.235 217.344 115.856 217.344 116.88C217.344 118.075 217.941 118.672 219.136 118.672C220.416 118.672 221.867 118.075 223.488 116.88C225.109 115.685 226.731 114.235 228.352 112.528C230.059 110.736 231.595 108.987 232.96 107.28C234.411 105.488 235.563 104.08 236.416 103.056C236.928 103.568 236.885 104.293 236.288 105.232C235.776 106.085 235.307 106.768 234.88 107.28C233.173 109.499 231.211 111.803 228.992 114.192C226.773 116.496 224.341 118.459 221.696 120.08C219.136 121.616 216.491 122.384 213.76 122.384ZM199.936 117.904C200.96 117.904 202.368 117.179 204.16 115.728C206.037 114.192 208.043 112.315 210.176 110.096C212.309 107.792 214.315 105.403 216.192 102.928C218.069 100.368 219.605 98.064 220.8 96.016C222.08 93.8827 222.72 92.2613 222.72 91.152C222.72 90.2133 222.421 89.5733 221.824 89.232C221.312 88.8907 220.629 88.72 219.776 88.72C218.411 88.72 216.917 89.232 215.296 90.256C213.76 91.1947 212.523 92.1333 211.584 93.072C210.56 94.0107 209.323 95.504 207.872 97.552C206.507 99.5147 205.141 101.691 203.776 104.08C202.411 106.469 201.259 108.773 200.32 110.992C199.381 113.211 198.912 115.003 198.912 116.368C198.912 117.392 199.253 117.904 199.936 117.904ZM234.745 123.792C234.404 123.792 234.404 123.451 234.745 122.768C235.172 122 235.556 121.147 235.897 120.208C236.324 119.269 236.75 118.245 237.177 117.136C238.03 115.088 238.969 112.784 239.993 110.224C241.017 107.664 241.998 105.189 242.937 102.8C243.876 100.325 244.686 98.2347 245.369 96.528C246.137 94.736 246.649 93.584 246.905 93.072C245.71 94.352 244.26 95.9733 242.553 97.936C240.932 99.8133 239.396 101.648 237.945 103.44C236.494 105.232 235.385 106.64 234.617 107.664C234.361 108.005 234.148 108.176 233.977 108.176C233.806 108.176 233.721 107.963 233.721 107.536C233.721 106.853 233.934 106.213 234.361 105.616C235.982 103.568 237.774 101.264 239.737 98.704C241.785 96.144 243.62 93.7973 245.241 91.664C246.862 89.4453 247.886 87.9947 248.313 87.312C249.252 87.1413 250.617 86.8853 252.409 86.544C254.286 86.2027 255.566 85.7333 256.249 85.136C256.505 84.88 256.761 84.752 257.017 84.752C257.188 84.752 257.273 84.9227 257.273 85.264C257.358 85.52 257.273 85.8187 257.017 86.16C256.505 86.672 255.737 87.7813 254.713 89.488C253.774 91.1947 252.708 93.1573 251.513 95.376C250.318 97.5947 249.166 99.728 248.057 101.776C248.91 100.496 250.02 99.0027 251.385 97.296C252.836 95.504 254.414 93.7973 256.121 92.176C257.828 90.4693 259.534 89.0613 261.241 87.952C263.033 86.8427 264.697 86.288 266.233 86.288C267.342 86.288 268.281 86.544 269.049 87.056C269.817 87.4827 270.414 88.2933 270.841 89.488C271.097 90.0853 271.225 90.768 271.225 91.536C271.225 92.9867 270.841 94.3947 270.073 95.76C269.39 97.04 268.878 98.0213 268.537 98.704C268.452 98.96 268.153 99.216 267.641 99.472C267.129 99.6427 266.916 99.5573 267.001 99.216C267.086 98.7893 267.129 98.3627 267.129 97.936C267.214 97.5093 267.257 97.04 267.257 96.528C267.257 95.0773 266.958 93.7547 266.361 92.56C265.849 91.3653 264.868 90.768 263.417 90.768C262.052 90.768 260.388 91.6213 258.425 93.328C256.462 95.0347 254.5 96.9973 252.537 99.216C250.062 102.117 248.1 104.891 246.649 107.536C245.198 110.096 244.004 112.613 243.065 115.088C242.553 116.453 242.041 117.819 241.529 119.184C241.017 120.464 240.633 121.488 240.377 122.256C239.268 122.341 238.158 122.597 237.049 123.024C235.94 123.536 235.172 123.792 234.745 123.792ZM276.532 124.048C274.996 124.048 273.375 123.835 271.668 123.408C269.961 122.981 268.425 122.299 267.06 121.36C265.78 120.336 264.927 118.971 264.5 117.264C264.415 117.008 264.372 116.624 264.372 116.112C264.372 114.917 264.628 113.595 265.14 112.144C265.737 110.693 266.463 109.669 267.316 109.072C267.657 108.901 267.913 108.901 268.084 109.072C268.34 109.243 268.383 109.413 268.212 109.584C268.127 109.84 267.999 110.181 267.828 110.608C267.657 110.949 267.529 111.333 267.444 111.76C267.188 113.979 267.657 115.941 268.852 117.648C269.364 118.331 269.961 118.971 270.644 119.568C271.412 120.165 272.137 120.677 272.82 121.104C273.417 121.445 274.143 121.701 274.996 121.872C275.849 121.957 276.703 122 277.556 122C278.921 122 280.244 121.829 281.524 121.488C282.804 121.147 283.743 120.592 284.34 119.824C285.449 118.459 286.004 116.923 286.004 115.216C286.004 113.936 285.663 112.571 284.98 111.12C284.297 109.669 283.231 108.133 281.78 106.512C280.841 105.488 279.945 104.379 279.092 103.184C278.239 101.989 277.684 100.709 277.428 99.344C277.343 99.088 277.257 98.832 277.172 98.576C277.172 98.32 277.172 98.064 277.172 97.808C276.063 99.4293 274.911 100.965 273.716 102.416C272.607 103.781 271.625 104.976 270.772 106C270.431 106.512 270.132 106.768 269.876 106.768C269.705 106.768 269.62 106.597 269.62 106.256C269.62 105.488 269.961 104.677 270.644 103.824C271.327 103.056 272.095 102.117 272.948 101.008C273.801 99.8133 274.484 98.8747 274.996 98.192C276.447 96.0587 277.513 94.3947 278.196 93.2C278.964 91.92 279.775 90.768 280.628 89.744C281.567 88.6347 282.719 87.7387 284.084 87.056C285.535 86.3733 287.028 86.032 288.564 86.032C290.356 86.032 291.977 86.3307 293.428 86.928C294.964 87.44 295.775 88.8053 295.86 91.024C295.86 92.048 295.647 93.1147 295.22 94.224C294.879 95.248 294.495 96.2293 294.068 97.168C293.812 97.68 293.428 98.064 292.916 98.32C292.489 98.4907 292.276 98.4053 292.276 98.064C292.276 97.7227 292.319 97.3387 292.404 96.912C292.489 96.4853 292.532 96.1013 292.532 95.76C292.532 94.3093 292.276 93.0293 291.764 91.92C291.337 90.7253 290.697 89.872 289.844 89.36C288.991 88.7627 288.095 88.464 287.156 88.464C285.791 88.464 284.468 89.0187 283.188 90.128C281.908 91.152 281.268 92.5173 281.268 94.224C281.268 94.3947 281.268 94.608 281.268 94.864C281.268 95.12 281.311 95.3333 281.396 95.504C281.737 96.8693 282.761 98.4053 284.468 100.112C286.175 101.819 287.497 103.312 288.436 104.592C290.057 106.811 290.868 109.072 290.868 111.376C290.868 113.68 290.185 115.813 288.82 117.776C287.54 119.653 285.791 121.147 283.572 122.256C281.439 123.451 279.092 124.048 276.532 124.048Z" fill="#EDEEFF"/>
</svg>
